<svg width="152" height="24" viewBox="0 0 152 24" fill="none" xmlns="http://www.w3.org/2000/svg">
<path d="M8.41601 23.68H6.91414e-06V23.616C1.02401 21.632 1.28001 20.512 1.28001 17.888V6.048C1.28001 3.392 1.02401 2.304 6.91414e-06 0.32V0.255999C4.67201 0.255999 5.79201 0.127998 8.38401 0.127998C15.296 0.0959988 16.512 3.168 16.512 5.6C16.512 8.096 15.2 10.24 12.16 11.264C16.288 11.904 17.728 14.496 17.728 17.152C17.728 20.8 15.072 23.68 8.41601 23.68ZM4.96001 11.168H8.67201C11.904 11.136 12.992 8.32 12.992 5.792C12.992 2.56 11.136 0.768 7.84001 0.768C6.59201 0.768 5.69601 0.896 4.96001 1.088V11.168ZM7.96801 23.04C11.904 23.04 13.856 20.736 13.856 17.312C13.856 14.112 12.288 11.808 8.96001 11.808H4.96001V22.656C5.72801 22.848 6.75201 23.04 7.96801 23.04ZM42.6858 17.344L41.2778 23.68H24.8938V23.616C25.7258 21.664 26.1418 20.416 26.1418 18.272V5.664C26.1418 3.488 25.7258 2.272 24.8938 0.32V0.255999H39.6778L40.9258 5.952L40.6698 6.048C38.9738 4.288 36.6698 1.024 35.2618 0.959999L29.8538 0.736V11.552H32.6058C34.1418 11.552 35.4858 9.408 36.5738 8.192H36.8618V15.424H36.5738C35.5178 14.304 34.1738 12.192 32.6058 12.192H29.8538V23.2L35.5498 22.976C38.1738 22.848 40.6058 19.744 42.4298 17.248L42.6858 17.344ZM64.9333 23.68H49.3813V23.616C50.4053 21.632 50.6613 20.512 50.6613 17.888V6.048C50.6613 3.392 50.4053 2.304 49.3813 0.32V0.255999H55.6213V0.32C54.5653 2.304 54.3413 3.392 54.3413 6.048V23.232L59.1733 23.04C61.8293 22.912 64.2933 19.968 66.0853 17.248L66.3413 17.344L64.9333 23.68ZM79.11 23.936H78.47L71.398 5.472C70.342 2.72 69.638 1.472 68.518 0.32V0.255999H75.174V0.32C74.598 1.248 74.374 3.36 75.238 5.632L80.294 19.04L84.806 7.2C86.214 3.52 85.542 1.376 84.87 0.32V0.255999H89.126V0.32C87.654 1.92 86.95 3.328 86.086 5.76L79.11 23.936ZM102.604 14.208L99.1158 4.96L95.5958 14.208H102.604ZM94.7318 23.616V23.68H90.4118V23.616C91.9478 22.016 92.5238 20.576 93.4518 18.112L100.332 0H100.972L107.98 18.464C109.036 21.248 109.772 22.464 110.892 23.616V23.68H104.524V23.616C105.068 22.688 105.068 20.672 104.172 18.304L102.86 14.848H95.3398L94.6678 16.64C93.2278 20.384 94.0598 22.56 94.7318 23.616ZM117.188 23.68V23.616C118.244 21.632 118.468 20.544 118.468 17.888V6.048C118.468 3.392 118.244 2.304 117.188 0.32V0.255999H123.428V0.32C122.372 2.304 122.148 3.392 122.148 6.048V17.888C122.148 20.544 122.372 21.632 123.428 23.616V23.68H117.188ZM148.131 23.776L133.283 3.616L133.411 17.312C133.411 20.192 133.827 21.376 135.619 23.616V23.68H130.691V23.616C132.291 21.376 132.643 20.192 132.643 17.312V4.768C132.515 2.688 131.939 1.728 130.147 0.32V0.255999H135.267L148.675 18.464L148.579 6.624C148.547 3.744 148.163 2.56 146.627 0.32V0.255999H151.235V0.32C149.699 2.56 149.283 3.744 149.283 6.624V23.68L148.131 23.776Z" fill="#0A0A0A"/>
</svg>
